<svg id="visual" viewBox="0 0 1920 3000" width="1920" height="3000" xmlns="http://www.w3.org/2000/svg" xmlns:xlink="http://www.w3.org/1999/xlink" version="1.1"><path d="M0 511L29.2 466C58.3 421 116.7 331 174.8 306C233 281 291 321 349.2 321C407.3 321 465.7 281 523.8 281C582 281 640 321 698.2 361C756.3 401 814.7 441 872.8 456C931 471 989 461 1047.2 436C1105.3 411 1163.7 371 1221.8 351C1280 331 1338 331 1396.2 341C1454.3 351 1512.7 371 1570.8 401C1629 431 1687 471 1745.2 441C1803.3 411 1861.7 311 1890.8 261L1920 211L1920 0L1890.8 0C1861.7 0 1803.3 0 1745.2 0C1687 0 1629 0 1570.8 0C1512.7 0 1454.3 0 1396.2 0C1338 0 1280 0 1221.8 0C1163.7 0 1105.3 0 1047.2 0C989 0 931 0 872.8 0C814.7 0 756.3 0 698.2 0C640 0 582 0 523.8 0C465.7 0 407.3 0 349.2 0C291 0 233 0 174.8 0C116.7 0 58.3 0 29.2 0L0 0Z" fill="#6198ff"></path><path d="M0 1021L29.2 951C58.3 881 116.7 741 174.8 731C233 721 291 841 349.2 851C407.3 861 465.7 761 523.8 756C582 751 640 841 698.2 866C756.3 891 814.7 851 872.8 826C931 801 989 791 1047.2 816C1105.3 841 1163.7 901 1221.8 926C1280 951 1338 941 1396.2 921C1454.3 901 1512.7 871 1570.8 896C1629 921 1687 1001 1745.2 981C1803.3 961 1861.7 841 1890.8 781L1920 721L1920 209L1890.8 259C1861.7 309 1803.3 409 1745.2 439C1687 469 1629 429 1570.8 399C1512.7 369 1454.3 349 1396.2 339C1338 329 1280 329 1221.8 349C1163.7 369 1105.3 409 1047.2 434C989 459 931 469 872.8 454C814.7 439 756.3 399 698.2 359C640 319 582 279 523.8 279C465.7 279 407.3 319 349.2 319C291 319 233 279 174.8 304C116.7 329 58.3 419 29.2 464L0 509Z" fill="#3c80ff"></path><path d="M0 1381L29.2 1326C58.3 1271 116.7 1161 174.8 1216C233 1271 291 1491 349.2 1631C407.3 1771 465.7 1831 523.8 1851C582 1871 640 1851 698.2 1836C756.3 1821 814.7 1811 872.8 1696C931 1581 989 1361 1047.2 1341C1105.3 1321 1163.7 1501 1221.8 1561C1280 1621 1338 1561 1396.2 1576C1454.3 1591 1512.7 1681 1570.8 1796C1629 1911 1687 2051 1745.2 1976C1803.3 1901 1861.7 1611 1890.8 1466L1920 1321L1920 719L1890.8 779C1861.7 839 1803.3 959 1745.2 979C1687 999 1629 919 1570.8 894C1512.7 869 1454.3 899 1396.2 919C1338 939 1280 949 1221.8 924C1163.7 899 1105.3 839 1047.2 814C989 789 931 799 872.8 824C814.7 849 756.3 889 698.2 864C640 839 582 749 523.8 754C465.7 759 407.3 859 349.2 849C291 839 233 719 174.8 729C116.7 739 58.3 879 29.2 949L0 1019Z" fill="#0066ff"></path><path d="M0 2551L29.2 2486C58.3 2421 116.7 2291 174.8 2281C233 2271 291 2381 349.2 2421C407.3 2461 465.7 2431 523.8 2466C582 2501 640 2601 698.2 2621C756.3 2641 814.7 2581 872.8 2516C931 2451 989 2381 1047.2 2406C1105.3 2431 1163.7 2551 1221.8 2616C1280 2681 1338 2691 1396.2 2636C1454.3 2581 1512.7 2461 1570.8 2471C1629 2481 1687 2621 1745.2 2621C1803.3 2621 1861.7 2481 1890.8 2411L1920 2341L1920 1319L1890.8 1464C1861.7 1609 1803.3 1899 1745.2 1974C1687 2049 1629 1909 1570.8 1794C1512.7 1679 1454.3 1589 1396.2 1574C1338 1559 1280 1619 1221.8 1559C1163.7 1499 1105.3 1319 1047.2 1339C989 1359 931 1579 872.8 1694C814.7 1809 756.3 1819 698.2 1834C640 1849 582 1869 523.8 1849C465.7 1829 407.3 1769 349.2 1629C291 1489 233 1269 174.8 1214C116.7 1159 58.3 1269 29.2 1324L0 1379Z" fill="#0059dd"></path><path d="M0 3001L29.2 3001C58.3 3001 116.7 3001 174.8 3001C233 3001 291 3001 349.2 3001C407.3 3001 465.7 3001 523.8 3001C582 3001 640 3001 698.2 3001C756.3 3001 814.7 3001 872.8 3001C931 3001 989 3001 1047.2 3001C1105.3 3001 1163.7 3001 1221.8 3001C1280 3001 1338 3001 1396.2 3001C1454.3 3001 1512.7 3001 1570.8 3001C1629 3001 1687 3001 1745.2 3001C1803.3 3001 1861.7 3001 1890.8 3001L1920 3001L1920 2339L1890.8 2409C1861.7 2479 1803.3 2619 1745.2 2619C1687 2619 1629 2479 1570.8 2469C1512.7 2459 1454.3 2579 1396.2 2634C1338 2689 1280 2679 1221.8 2614C1163.7 2549 1105.3 2429 1047.2 2404C989 2379 931 2449 872.8 2514C814.7 2579 756.3 2639 698.2 2619C640 2599 582 2499 523.8 2464C465.7 2429 407.3 2459 349.2 2419C291 2379 233 2269 174.8 2279C116.7 2289 58.3 2419 29.2 2484L0 2549Z" fill="#004cbb"></path></svg>