<svg id="visual" viewBox="0 0 1920 3000" width="1920" height="3000" xmlns="http://www.w3.org/2000/svg" xmlns:xlink="http://www.w3.org/1999/xlink" version="1.1"><path d="M0 421L175 451L349 331L524 391L698 211L873 301L1047 421L1222 421L1396 181L1571 361L1745 301L1920 391L1920 0L1745 0L1571 0L1396 0L1222 0L1047 0L873 0L698 0L524 0L349 0L175 0L0 0Z" fill="#00cc8e"></path><path d="M0 1291L175 1141L349 1561L524 1081L698 631L873 1531L1047 1441L1222 1351L1396 841L1571 1441L1745 1381L1920 1591L1920 389L1745 299L1571 359L1396 179L1222 419L1047 419L873 299L698 209L524 389L349 329L175 449L0 419Z" fill="#00b98a"></path><path d="M0 1831L175 1351L349 1921L524 1591L698 1291L873 1831L1047 1651L1222 1651L1396 1291L1571 1921L1745 1831L1920 2011L1920 1589L1745 1379L1571 1439L1396 839L1222 1349L1047 1439L873 1529L698 629L524 1079L349 1559L175 1139L0 1289Z" fill="#00a784"></path><path d="M0 2431L175 2611L349 2731L524 2251L698 2281L873 2521L1047 2521L1222 2191L1396 2221L1571 2581L1745 2551L1920 2431L1920 2009L1745 1829L1571 1919L1396 1289L1222 1649L1047 1649L873 1829L698 1289L524 1589L349 1919L175 1349L0 1829Z" fill="#00957c"></path><path d="M0 3001L175 3001L349 3001L524 3001L698 3001L873 3001L1047 3001L1222 3001L1396 3001L1571 3001L1745 3001L1920 3001L1920 2429L1745 2549L1571 2579L1396 2219L1222 2189L1047 2519L873 2519L698 2279L524 2249L349 2729L175 2609L0 2429Z" fill="#038373"></path></svg>